<svg xmlns="http://www.w3.org/2000/svg" width="24" height="25" viewBox="0 0 24 25" fill="none">
  <path fill-rule="evenodd" clip-rule="evenodd" d="M12.0001 24.8C18.6275 24.8 24.0001 19.4274 24.0001 12.8C24.0001 6.1726 18.6275 0.800018 12.0001 0.800018C5.3727 0.800018 0.00012207 6.1726 0.00012207 12.8C0.00012207 19.4274 5.3727 24.8 12.0001 24.8ZM12.0001 23.7091C18.025 23.7091 22.9092 18.8249 22.9092 12.8C22.9092 6.77509 18.025 1.89093 12.0001 1.89093C5.9752 1.89093 1.09103 6.77509 1.09103 12.8C1.09103 18.8249 5.9752 23.7091 12.0001 23.7091ZM12.0001 20.4364C16.2176 20.4364 19.6365 17.0175 19.6365 12.8C19.6365 8.58257 16.2176 5.16365 12.0001 5.16365C7.78268 5.16365 4.36376 8.58257 4.36376 12.8C4.36376 17.0175 7.78268 20.4364 12.0001 20.4364ZM12.0001 19.3455C15.6151 19.3455 18.5456 16.415 18.5456 12.8C18.5456 9.18506 15.6151 6.25456 12.0001 6.25456C8.38517 6.25456 5.45467 9.18506 5.45467 12.8C5.45467 16.415 8.38517 19.3455 12.0001 19.3455ZM12.0001 16.0727C13.8076 16.0727 15.2729 14.6075 15.2729 12.8C15.2729 10.9925 13.8076 9.52729 12.0001 9.52729C10.1926 9.52729 8.7274 10.9925 8.7274 12.8C8.7274 14.6075 10.1926 16.0727 12.0001 16.0727ZM12.0001 14.9818C13.2051 14.9818 14.1819 14.005 14.1819 12.8C14.1819 11.595 13.2051 10.6182 12.0001 10.6182C10.7951 10.6182 9.8183 11.595 9.8183 12.8C9.8183 14.005 10.7951 14.9818 12.0001 14.9818Z" fill="black"/>
</svg>