<svg xmlns="http://www.w3.org/2000/svg" width="24" height="24" viewBox="0 0 24 24" fill="none">
  <path d="M9.375 10.9219C9.48936 10.8548 9.58416 10.7589 9.64995 10.6437C9.71574 10.5286 9.75023 10.3982 9.75 10.2656V3.51564C9.75105 3.39483 9.7229 3.27555 9.66794 3.16795C9.61298 3.06036 9.53284 2.96763 9.43433 2.89767C9.33583 2.82771 9.22189 2.78257 9.10219 2.76612C8.9825 2.74966 8.8606 2.76236 8.74688 2.80314C6.84809 3.47954 5.20473 4.72621 4.04173 6.37253C2.87874 8.01885 2.25294 9.98435 2.25 12C2.25102 12.5973 2.30434 13.1933 2.40938 13.7813C2.43191 13.8987 2.48187 14.0092 2.55518 14.1037C2.62849 14.1982 2.72308 14.274 2.83125 14.325C2.93107 14.3721 3.03967 14.3976 3.15 14.4C3.28189 14.3992 3.41124 14.3636 3.525 14.2969L9.375 10.9219ZM8.25 4.65002V9.83439L3.75937 12.4313C3.75 12.2813 3.75 12.1406 3.75 12C3.75288 10.4798 4.17432 8.98975 4.9681 7.69324C5.76188 6.39673 6.89735 5.34383 8.25 4.65002Z" fill="#1C1C1C"/>
  <path d="M20.4656 7.1625C20.4559 7.15204 20.4494 7.13903 20.4469 7.125L20.4094 7.07812C19.5514 5.60906 18.3236 4.39034 16.8482 3.54326C15.3728 2.69619 13.7013 2.25031 12 2.25C11.8011 2.25 11.6103 2.32902 11.4697 2.46967C11.329 2.61032 11.25 2.80109 11.25 3V11.5688L3.83437 15.8531C3.74794 15.9009 3.67193 15.9655 3.61081 16.043C3.5497 16.1206 3.50472 16.2096 3.47851 16.3048C3.45231 16.4 3.44541 16.4995 3.45822 16.5974C3.47103 16.6954 3.5033 16.7897 3.55312 16.875V16.8937L3.58125 16.9406C4.66269 18.7919 6.32419 20.2351 8.30857 21.0468C10.293 21.8585 12.4896 21.9936 14.5584 21.431C16.6273 20.8684 18.453 19.6396 19.7531 17.9347C21.0531 16.2298 21.755 14.144 21.75 12C21.7523 10.3029 21.3094 8.63494 20.4656 7.1625Z" fill="#1C1C1C"/>
</svg>