<svg xmlns="http://www.w3.org/2000/svg" width="33" height="33" viewBox="0 0 33 33" fill="none">
  <g clip-path="url(#clip0_2250_17076)">
    <path d="M25.4316 17.1682C25.1592 16.5217 24.8501 15.7882 24.5483 14.883C23.7583 12.5148 26.2827 9.93083 26.3066 9.90643L24.8926 8.49243C24.7519 8.63303 21.4692 11.9699 22.6509 15.5158C22.977 16.4938 23.3022 17.2648 23.5889 17.9458C24.2561 19.2643 24.6024 20.7218 24.5996 22.1994C24.4825 23.3905 24.0253 24.5228 23.2825 25.4613C22.5397 26.3998 21.5428 27.1048 20.4104 27.4924C20.7681 26.09 20.7626 24.6197 20.3945 23.22C20.0265 21.8203 19.3079 20.5374 18.3066 19.4924L17.2622 18.4479L16.6807 19.8054C14.8445 24.0894 12.6596 25.9594 11.3743 26.7394C10.5855 26.2563 9.92265 25.5928 9.44027 24.8035C8.9579 24.0143 8.66978 23.1218 8.59961 22.1994C8.66851 20.9406 8.98405 19.7077 9.52831 18.5705C10.174 17.1998 10.5383 15.7134 10.5996 14.1994V12.4211C11.4731 12.7811 12.5996 13.7248 12.5996 16.1994V18.8029L14.3428 16.8688C17.4546 13.4142 16.8052 9.30103 15.5488 6.56073C16.5042 6.87924 17.3247 7.50998 17.8781 8.35141C18.4314 9.19284 18.6856 10.196 18.5996 11.1994H20.5996C20.5996 5.66233 16.021 4.19943 13.5996 4.19943H11.5996L12.7988 5.79803C12.9365 5.98363 15.6616 9.72583 14.1523 13.486C13.8165 12.541 13.2012 11.7205 12.388 11.1335C11.5748 10.5464 10.6023 10.2207 9.59961 10.1994H8.59961V14.1994C8.53071 15.4582 8.21517 16.6912 7.67091 17.8283C7.02519 19.1991 6.6609 20.6854 6.59961 22.1994C6.59961 26.0471 10.4228 30.1994 16.5996 30.1994C22.7764 30.1994 26.5996 26.0471 26.5996 22.1994C26.6011 20.455 26.2015 18.7336 25.4316 17.1682ZM13.4348 27.7258C15.2794 26.1986 16.7694 24.2881 17.8013 22.1271C18.3525 23.017 18.6657 24.0336 18.7107 25.0793C18.7558 26.1251 18.5312 27.1649 18.0586 28.0988C17.575 28.1638 17.0876 28.1974 16.5996 28.1994C15.5265 28.207 14.4587 28.0472 13.4348 27.7258Z" fill="black" stroke="#FAE2E2"/>
  </g>
  <defs>
    <clipPath id="clip0_2250_17076">
      <rect width="32" height="32" fill="white" transform="translate(0.599609 0.199432)"/>
    </clipPath>
  </defs>
</svg>