<svg xmlns="http://www.w3.org/2000/svg" width="30" height="30" viewBox="0 0 30 30" fill="none">
  <path d="M15 27.5C21.9036 27.5 27.5 21.9036 27.5 15C27.5 8.09644 21.9036 2.5 15 2.5C8.09644 2.5 2.5 8.09644 2.5 15C2.5 21.9036 8.09644 27.5 15 27.5Z" stroke="#B4B3BA" stroke-width="1.5" stroke-linecap="round" stroke-linejoin="round"/>
  <path d="M11.3623 11.25C11.6562 10.4146 12.2362 9.71011 12.9997 9.2614C13.7633 8.81268 14.6609 8.64865 15.5338 8.79837C16.4066 8.94809 17.1983 9.40188 17.7687 10.0794C18.339 10.7569 18.6511 11.6144 18.6498 12.5C18.6498 15 14.8998 16.25 14.8998 16.25" stroke="#B4B3BA" stroke-width="1.5" stroke-linecap="round" stroke-linejoin="round"/>
  <path d="M15 21.25H15.0125" stroke="#B4B3BA" stroke-width="1.5" stroke-linecap="round" stroke-linejoin="round"/>
</svg>