<svg xmlns="http://www.w3.org/2000/svg" width="18" height="18" viewBox="0 0 18 18" fill="none">
  <path d="M1.5 2.25H6C6.79565 2.25 7.55871 2.56607 8.12132 3.12868C8.68393 3.69129 9 4.45435 9 5.25V15.75C9 15.1533 8.76295 14.581 8.34099 14.159C7.91903 13.7371 7.34674 13.5 6.75 13.5H1.5V2.25Z" stroke="#221F20" stroke-linecap="round" stroke-linejoin="round"/>
  <path d="M16.5 2.25H12C11.2044 2.25 10.4413 2.56607 9.87868 3.12868C9.31607 3.69129 9 4.45435 9 5.25V15.75C9 15.1533 9.23705 14.581 9.65901 14.159C10.081 13.7371 10.6533 13.5 11.25 13.5H16.5V2.25Z" stroke="#221F20" stroke-linecap="round" stroke-linejoin="round"/>
</svg>