<svg xmlns="http://www.w3.org/2000/svg" width="24" height="24" viewBox="0 0 24 24" fill="none">
  <path fill-rule="evenodd" clip-rule="evenodd" d="M3.75 4.5H20.25C20.4489 4.5 20.6396 4.5791 20.7803 4.71973C20.9209 4.86035 21 5.05115 21 5.25V18.75C21 18.9489 20.9209 19.1396 20.7803 19.2803C20.6396 19.4209 20.4489 19.5 20.25 19.5H3.75C3.55115 19.5 3.36035 19.4209 3.21973 19.2803C3.0791 19.1396 3 18.9489 3 18.75V5.25C3 5.05115 3.0791 4.86035 3.21973 4.71973C3.36035 4.5791 3.55115 4.5 3.75 4.5ZM7.38428 13.1208C7.75433 13.368 8.18939 13.5 8.63434 13.5C8.93024 13.5013 9.22339 13.444 9.49695 13.3312C9.77051 13.2186 10.019 13.0529 10.2281 12.8438C10.4374 12.6346 10.6029 12.386 10.7157 12.1124C10.8283 11.8391 10.8856 11.5459 10.8843 11.25C10.8843 10.8051 10.7525 10.37 10.5051 9.99994C10.2579 9.62988 9.90656 9.34149 9.49548 9.1712C9.08423 9.00092 8.63196 8.95642 8.19543 9.04321C7.75891 9.13 7.35809 9.34442 7.04333 9.659C6.72876 9.97375 6.51434 10.3746 6.42755 10.8111C6.34076 11.2474 6.38544 11.6999 6.55573 12.111C6.72601 12.5222 7.0144 12.8736 7.38428 13.1208Z" fill="black" fill-opacity="0.1"/>
  <path d="M14.25 11.25H18C18.4142 11.25 18.75 10.9142 18.75 10.5C18.75 10.0858 18.4142 9.75 18 9.75H14.25C13.8358 9.75 13.5 10.0858 13.5 10.5C13.5 10.9142 13.8358 11.25 14.25 11.25Z" fill="#1C1C1C"/>
  <path d="M14.25 14.25H18C18.4142 14.25 18.75 13.9142 18.75 13.5C18.75 13.0858 18.4142 12.75 18 12.75H14.25C13.8358 12.75 13.5 13.0858 13.5 13.5C13.5 13.9142 13.8358 14.25 14.25 14.25Z" fill="#1C1C1C"/>
  <path fill-rule="evenodd" clip-rule="evenodd" d="M8.6344 8.25C8.6344 8.25 9.87704 8.25 10.7557 9.12868C10.7557 9.12868 11.6344 10.0074 11.6344 11.25C11.6344 11.25 11.6344 12.4926 10.7557 13.3713C10.7557 13.3713 9.87704 14.25 8.6344 14.25C8.6344 14.25 7.39176 14.25 6.51308 13.3713C6.51308 13.3713 5.6344 12.4926 5.6344 11.25C5.6344 11.25 5.6344 10.0074 6.51308 9.12868C6.51308 9.12868 7.39176 8.25 8.6344 8.25ZM8.6344 9.75C8.6344 9.75 8.01308 9.75 7.57374 10.1893C7.57374 10.1893 7.1344 10.6287 7.1344 11.25C7.1344 11.25 7.1344 11.8713 7.57374 12.3107C7.57374 12.3107 8.01308 12.75 8.6344 12.75C8.6344 12.75 9.25572 12.75 9.69506 12.3107C9.69506 12.3107 10.1344 11.8713 10.1344 11.25C10.1344 11.25 10.1344 10.6287 9.69506 10.1893C9.69506 10.1893 9.25572 9.75 8.6344 9.75Z" fill="#1C1C1C"/>
  <path d="M10.014 14.7168C10.6223 15.1889 10.8137 15.9346 10.8137 15.9346L10.8139 15.9353L10.8141 15.9361C10.8991 16.2679 11.1981 16.5 11.5406 16.5L11.5557 16.4999C11.6134 16.4987 11.6708 16.4909 11.7267 16.4766C12.0585 16.3916 12.2906 16.0926 12.2906 15.75L12.2905 15.7349C12.2893 15.6773 12.2815 15.6199 12.2672 15.564C11.9486 14.3195 10.9338 13.5318 10.9338 13.5318C9.91901 12.7441 8.6344 12.7441 8.6344 12.7441C7.34978 12.7441 6.335 13.5318 6.335 13.5318C5.32022 14.3195 5.00159 15.564 5.00159 15.564C4.98602 15.6248 4.97815 15.6873 4.97815 15.75C4.97815 15.7607 4.97838 15.7714 4.97883 15.782C4.98411 15.9055 5.01984 16.0259 5.08285 16.1322C5.18422 16.3034 5.34942 16.4272 5.54212 16.4766C5.60291 16.4921 5.6654 16.5 5.72815 16.5C5.73882 16.5 5.74948 16.4998 5.76014 16.4993C5.88367 16.4941 6.00398 16.4583 6.11036 16.3953C6.28151 16.294 6.40537 16.1287 6.45471 15.9361C6.64589 15.1894 7.25476 14.7168 7.25476 14.7168C7.86363 14.2441 8.6344 14.2441 8.6344 14.2441C9.40517 14.2441 10.014 14.7168 10.014 14.7168Z" fill="#1C1C1C"/>
  <path fill-rule="evenodd" clip-rule="evenodd" d="M2.25 5.25C2.25 5.25 2.25 4.62868 2.68934 4.18934C2.68934 4.18934 3.12868 3.75 3.75 3.75H20.25C20.25 3.75 20.8713 3.75 21.3107 4.18934C21.3107 4.18934 21.75 4.62868 21.75 5.25V18.75C21.75 18.75 21.75 19.3713 21.3107 19.8107C21.3107 19.8107 20.8713 20.25 20.25 20.25H3.75C3.75 20.25 3.12868 20.25 2.68934 19.8107C2.68934 19.8107 2.25 19.3713 2.25 18.75V5.25ZM3.75 5.25V18.75H20.25V5.25H3.75Z" fill="#1C1C1C"/>
</svg>