<svg xmlns="http://www.w3.org/2000/svg" width="28" height="28" viewBox="0 0 28 28" fill="none">
  <path d="M24.121 9.59307L22.4804 7.18244C22.4744 7.17369 22.4645 7.16877 22.458 7.16057C22.4432 7.14277 22.4265 7.12663 22.4082 7.11244C22.3911 7.09872 22.3728 7.08664 22.3535 7.07635C22.3345 7.06683 22.3148 7.05896 22.2944 7.05283C22.2614 7.04637 22.2284 7.03963 22.1955 7.0326H16.2493C15.8872 7.0317 15.5297 7.1131 15.2037 7.27065C14.8777 7.4282 14.5917 7.65779 14.3675 7.94205L14.0005 8.40416L13.6336 7.94205C13.4093 7.65779 13.1234 7.4282 12.7974 7.27065C12.4714 7.1131 12.1139 7.0317 11.7518 7.0326H5.80287C5.79201 7.03421 5.78124 7.0364 5.77061 7.03916C5.74858 7.04164 5.7268 7.04604 5.70553 7.05229C5.68435 7.05845 5.66383 7.06669 5.64428 7.0769C5.62497 7.08678 5.60665 7.0985 5.58959 7.1119C5.57156 7.12658 5.5549 7.14287 5.53983 7.16057C5.53326 7.16877 5.52342 7.17369 5.5174 7.18244L3.87678 9.59307C3.83898 9.65126 3.81955 9.71947 3.821 9.78885V20.6241C3.821 20.7149 3.85705 20.8021 3.92124 20.8664C3.98542 20.9306 4.0725 20.9668 4.16334 20.967H23.8377C23.9286 20.9668 24.0156 20.9306 24.0798 20.8664C24.144 20.8021 24.1801 20.7149 24.1801 20.6241V9.78885C24.1805 9.71913 24.16 9.65089 24.121 9.59307ZM14.904 8.36697C15.0644 8.16386 15.2688 7.99983 15.5018 7.88728C15.7349 7.77474 15.9905 7.71661 16.2493 7.71729H21.8558V18.7029H16.2493C15.8872 18.7021 15.5296 18.7836 15.2036 18.9412C14.8776 19.0989 14.5917 19.3285 14.3675 19.6129L14.3429 19.6435V9.07408L14.904 8.36697ZM6.14522 7.71783H11.7518C12.0105 7.71709 12.2661 7.77513 12.4991 7.88758C12.7322 8.00004 12.9367 8.16396 13.0971 8.36697L13.6582 9.07354V19.6424L13.6336 19.6118C13.4093 19.3277 13.1233 19.0982 12.7973 18.9407C12.4713 18.7833 12.1138 18.7019 11.7518 18.7029H6.14522V7.71783ZM4.50459 9.89166L5.45944 8.48783V19.0425C5.45936 19.0875 5.46817 19.1321 5.48534 19.1737C5.50251 19.2153 5.52772 19.2531 5.55951 19.2849C5.59131 19.3168 5.62907 19.3421 5.67064 19.3593C5.71221 19.3765 5.75678 19.3854 5.80178 19.3854H11.7518C12.0106 19.3847 12.2662 19.4429 12.4992 19.5554C12.7323 19.668 12.9367 19.832 13.0971 20.0351L13.2918 20.2801H4.50569L4.50459 9.89166ZM23.4943 20.2823H14.7115L14.9062 20.0373C15.0665 19.8342 15.271 19.6701 15.504 19.5576C15.7371 19.445 15.9927 19.3869 16.2515 19.3876H22.1982C22.2432 19.3876 22.2878 19.3787 22.3293 19.3615C22.3709 19.3443 22.4087 19.319 22.4405 19.2871C22.4722 19.2553 22.4975 19.2175 22.5146 19.1759C22.5318 19.1343 22.5406 19.0897 22.5405 19.0447V8.49002L23.4954 9.89385L23.4943 20.2823Z" fill="black"/>
</svg>