<svg xmlns="http://www.w3.org/2000/svg" width="26" height="27" viewBox="0 0 26 27" fill="none">
  <g clip-path="url(#clip0_2250_17034)">
    <path d="M4.87512 3.23743C4.42641 3.23747 4.06267 3.60121 4.06262 4.04993V6.48743H1.62512C1.17641 6.48747 0.812667 6.85121 0.812622 7.29993V20.2999C0.812667 20.7486 1.17641 21.1124 1.62512 21.1124H3.25012V23.5499C3.24984 24.2315 4.03829 24.6106 4.57043 24.1847L8.41077 21.1124H21.1251C21.5738 21.1124 21.9376 20.7486 21.9376 20.2999V19.4874H24.3751C24.8238 19.4874 25.1876 19.1236 25.1876 18.6749V4.04993C25.1876 3.60121 24.8238 3.23747 24.3751 3.23743H4.87512ZM5.68762 4.86243H23.5626V17.8624H21.9376V7.29993C21.9376 6.85121 21.5738 6.48747 21.1251 6.48743H5.68762V4.86243ZM2.43762 8.11243H20.3126V19.4874H8.12512C7.94058 19.4873 7.76149 19.55 7.61731 19.6652L4.87512 21.8583V20.2999C4.87508 19.8512 4.51133 19.4875 4.06262 19.4874H2.43762V8.11243Z" fill="black" stroke="#FAE2E2" stroke-width="0.8125"/>
  </g>
  <defs>
    <clipPath id="clip0_2250_17034">
      <rect width="26" height="26" fill="white" transform="translate(0.00012207 0.800018)"/>
    </clipPath>
  </defs>
</svg>