<svg xmlns="http://www.w3.org/2000/svg" width="22" height="23" viewBox="0 0 22 23" fill="none">
  <path d="M18.3701 16.9007L13.7501 7.65379V3.00629H14.4376V1.63129H7.56258V3.00629H8.25008V7.65379L3.63008 16.9007C3.42046 17.3196 3.32132 17.7851 3.34205 18.253C3.36278 18.721 3.5027 19.1759 3.74855 19.5746C3.99439 19.9733 4.338 20.3026 4.7468 20.5313C5.1556 20.76 5.61604 20.8805 6.08445 20.8813H15.9157C16.3841 20.8805 16.8446 20.76 17.2534 20.5313C17.6622 20.3026 18.0058 19.9733 18.2516 19.5746C18.4974 19.1759 18.6374 18.721 18.6581 18.253C18.6788 17.7851 18.5797 17.3196 18.3701 16.9007ZM9.54945 8.12816C9.59853 8.03238 9.62443 7.92641 9.62508 7.81879V3.00629H12.3751V7.81879C12.3757 7.92641 12.4016 8.03238 12.4507 8.12816L15.3863 14.0063H6.61383L9.54945 8.12816ZM17.112 18.8532C16.9889 19.0526 16.817 19.2173 16.6124 19.3316C16.4079 19.4459 16.1775 19.506 15.9432 19.5063H6.08445C5.85101 19.505 5.62173 19.4443 5.41824 19.3299C5.21474 19.2155 5.04372 19.0512 4.92129 18.8524C4.79887 18.6536 4.72907 18.427 4.71846 18.1937C4.70786 17.9605 4.75681 17.7285 4.8607 17.5194L5.92633 15.3813H16.0738L17.1395 17.5194C17.2443 17.7281 17.2943 17.9601 17.2847 18.1934C17.275 18.4268 17.2061 18.6538 17.0845 18.8532H17.112Z" fill="black" stroke="#FFE5EE" stroke-width="0.488889"/>
</svg>