<svg xmlns="http://www.w3.org/2000/svg" width="28" height="29" viewBox="0 0 28 29" fill="none">
  <g clip-path="url(#clip0_2250_17182)">
    <path d="M21.8405 8.60011C18.7012 8.60011 15.1961 12.0715 14.0005 13.3618C12.8049 12.071 9.29991 8.60011 6.16055 8.60011C2.65383 8.60011 0.560547 10.6934 0.560547 14.2001C0.560547 17.7068 2.65383 19.8001 6.16055 19.8001C9.29991 19.8001 12.8049 16.3287 14.0005 15.0384C15.1961 16.3292 18.7012 19.8001 21.8405 19.8001C25.3473 19.8001 27.4405 17.7068 27.4405 14.2001C27.4405 10.6934 25.3473 8.60011 21.8405 8.60011ZM6.16055 18.6801C2.26295 18.6801 1.68055 15.8734 1.68055 14.2001C1.68055 12.5268 2.26295 9.72011 6.16055 9.72011C8.88327 9.72011 12.2097 13.0751 13.2485 14.2001C12.2102 15.3257 8.88719 18.6801 6.16055 18.6801ZM21.8405 18.6801C19.1178 18.6801 15.7914 15.3251 14.7526 14.2001C15.7909 13.0745 19.1139 9.72011 21.8405 9.72011C25.7381 9.72011 26.3205 12.5268 26.3205 14.2001C26.3205 15.8734 25.7381 18.6801 21.8405 18.6801Z" fill="black"/>
  </g>
  <defs>
    <clipPath id="clip0_2250_17182">
      <rect width="28" height="28" fill="white" transform="translate(0.00012207 0.200012)"/>
    </clipPath>
  </defs>
</svg>