<svg xmlns="http://www.w3.org/2000/svg" width="26" height="26" viewBox="0 0 26 26" fill="none">
  <path d="M4.06262 22.75H21.9376" stroke="black" stroke-width="0.928571" stroke-linecap="round" stroke-linejoin="round"/>
  <path d="M11.3755 13.8125L9.56764 5.38281C9.49193 5.02736 9.49666 4.65948 9.58148 4.30609C9.66631 3.9527 9.82908 3.62275 10.0579 3.34039C10.2867 3.05803 10.5757 2.83041 10.9039 2.67419C11.232 2.51797 11.5909 2.4371 11.9544 2.4375H14.0466C14.41 2.4371 14.7689 2.51797 15.097 2.67419C15.4252 2.83041 15.7142 3.05803 15.943 3.34039C16.1718 3.62275 16.3346 3.9527 16.4194 4.30609C16.5043 4.65948 16.509 5.02736 16.4333 5.38281L14.6255 13.8125" stroke="black" stroke-width="0.928571" stroke-linecap="round" stroke-linejoin="round"/>
  <path d="M21.1251 13.8125H4.87512C4.42639 13.8125 4.06262 14.1763 4.06262 14.625V18.6875C4.06262 19.1362 4.42639 19.5 4.87512 19.5H21.1251C21.5739 19.5 21.9376 19.1362 21.9376 18.6875V14.625C21.9376 14.1763 21.5739 13.8125 21.1251 13.8125Z" stroke="black" stroke-width="0.928571" stroke-linecap="round" stroke-linejoin="round"/>
</svg>