<svg xmlns="http://www.w3.org/2000/svg" width="26" height="27" viewBox="0 0 26 27" fill="none">
  <g clip-path="url(#clip0_2250_17170)">
    <path d="M8.93762 23.7625H17.0626" stroke="black" stroke-width="0.8125" stroke-linecap="round" stroke-linejoin="round"/>
    <path d="M13.0001 20.5125V14.825" stroke="black" stroke-width="0.8125" stroke-linecap="round" stroke-linejoin="round"/>
    <path d="M9.75012 11.575L13.0001 14.825L16.2501 11.575" stroke="black" stroke-width="0.8125" stroke-linecap="round" stroke-linejoin="round"/>
    <path d="M7.99306 17.1609C7.02577 16.4088 6.24234 15.4464 5.70213 14.3467C5.16192 13.2469 4.8791 12.0386 4.87509 10.8133C4.85477 6.40548 8.39931 2.73908 12.8071 2.63751C14.513 2.59707 16.1884 3.09475 17.5955 4.05996C19.0027 5.02517 20.0703 6.40892 20.6468 8.01496C21.2234 9.62099 21.2797 11.3678 20.8077 13.0076C20.3357 14.6474 19.3594 16.097 18.0173 17.1508C17.7208 17.38 17.4806 17.6739 17.3152 18.0101C17.1497 18.3463 17.0633 18.7159 17.0626 19.0906V19.7C17.0626 19.9155 16.977 20.1222 16.8246 20.2745C16.6722 20.4269 16.4656 20.5125 16.2501 20.5125H9.75009C9.5346 20.5125 9.32794 20.4269 9.17556 20.2745C9.02319 20.1222 8.93759 19.9155 8.93759 19.7V19.0906C8.93504 18.7187 8.84882 18.3522 8.68531 18.0181C8.52181 17.6841 8.28521 17.3911 7.99306 17.1609Z" stroke="black" stroke-width="0.8125" stroke-linecap="round" stroke-linejoin="round"/>
  </g>
  <defs>
    <clipPath id="clip0_2250_17170">
      <rect width="26" height="26" fill="white" transform="translate(0.00012207 0.200012)"/>
    </clipPath>
  </defs>
</svg>