<svg xmlns="http://www.w3.org/2000/svg" width="40" height="39" viewBox="0 0 40 39" fill="none">
  <rect x="1.42857" y="0.928571" width="37.1429" height="37.1429" rx="2.78571" fill="white" stroke="#978AD6" stroke-width="1.85714"/>
  <rect x="1.42857" y="0.928571" width="37.1429" height="37.1429" rx="2.78571" fill="#F5F5F5" stroke="url(#paint0_linear_281_8498)" stroke-width="1.85714"/>
  <path fill-rule="evenodd" clip-rule="evenodd" d="M27.7313 8.21045H25.0963C24.6585 5.79322 22.5432 3.95996 19.9997 3.95996C17.4562 3.95996 15.341 5.79322 14.9031 8.21045L7.05064 8.21045C6.53781 8.21045 6.12207 8.62619 6.12207 9.13902C6.12207 9.65186 6.53781 10.0676 7.05064 10.0676L14.9029 10.0676C15.3402 12.4854 17.4558 14.3193 19.9997 14.3193C22.5436 14.3193 24.6592 12.4854 25.0965 10.0676H27.7313C30.1002 10.0676 32.0205 11.9879 32.0205 14.3568C32.0205 16.7257 30.1002 18.646 27.7313 18.646H12.2684C8.87389 18.646 6.12208 21.3978 6.12208 24.7923C6.12208 28.1869 8.87389 30.9387 12.2684 30.9387H14.9327C15.4294 33.2811 17.5093 35.0387 19.9997 35.0387C22.4901 35.0387 24.57 33.2811 25.0667 30.9387H32.9491C33.4619 30.9387 33.8776 30.523 33.8776 30.0101C33.8776 29.4973 33.4619 29.0815 32.9491 29.0815H25.1214C24.7463 26.5897 22.5961 24.6793 19.9997 24.6793C17.4033 24.6793 15.2531 26.5897 14.878 29.0815H12.2684C9.89956 29.0815 7.97922 27.1612 7.97922 24.7923C7.97922 22.4235 9.89956 20.5031 12.2684 20.5031L27.7313 20.5031C31.1258 20.5031 33.8776 17.7513 33.8777 14.3568C33.8777 10.9623 31.1258 8.21045 27.7313 8.21045Z" fill="url(#paint1_linear_281_8498)"/>
  <defs>
    <linearGradient id="paint0_linear_281_8498" x1="47.7261" y1="28.5308" x2="-6.42133" y2="28.5308" gradientUnits="userSpaceOnUse">
      <stop offset="0.152232" stop-color="#483D8B"/>
      <stop offset="0.354727" stop-color="#EE7A7A"/>
      <stop offset="0.682577" stop-color="#F6CF56"/>
      <stop offset="0.920429" stop-color="#75C7C5"/>
    </linearGradient>
    <linearGradient id="paint1_linear_281_8498" x1="39.732" y1="26.6959" x2="1.19629" y2="26.6959" gradientUnits="userSpaceOnUse">
      <stop offset="0.152232" stop-color="#483D8B"/>
      <stop offset="0.354727" stop-color="#EE7A7A"/>
      <stop offset="0.682577" stop-color="#F6CF56"/>
      <stop offset="0.920429" stop-color="#75C7C5"/>
    </linearGradient>
  </defs>
</svg>