<svg xmlns="http://www.w3.org/2000/svg" width="117" height="49" viewBox="0 0 117 49" fill="none">
  <rect x="4" y="4" width="40.7068" height="40.7068" rx="12" fill="white" stroke="#978AD6" stroke-width="8"/>
  <rect x="1" y="1" width="46.7068" height="46.7068" rx="15" fill="white" stroke="url(#paint0_linear_163_4678)" stroke-width="2"/>
  <path fill-rule="evenodd" clip-rule="evenodd" d="M34.0092 10.4157H30.7455C30.2648 7.31783 27.586 4.94678 24.3535 4.94678C21.1209 4.94678 18.4421 7.31783 17.9614 10.4157L8.18127 10.4157C7.62899 10.4157 7.18127 10.8634 7.18127 11.4157C7.18127 11.9679 7.62899 12.4157 8.18127 12.4157L17.9614 12.4157C18.4421 15.5135 21.1209 17.8845 24.3535 17.8845C27.586 17.8845 30.2648 15.5135 30.7455 12.4157H34.0092C37.0559 12.4157 39.5257 14.8855 39.5257 17.9321C39.5257 20.9788 37.0559 23.4485 34.0092 23.4485L14.6977 23.4485C10.5465 23.4485 7.18128 26.8138 7.18128 30.965C7.18128 35.1162 10.5465 38.4814 14.6977 38.4814H17.9939C18.5526 41.4856 21.1874 43.76 24.3535 43.76C27.5195 43.76 30.1543 41.4856 30.7131 38.4814H40.5257C41.0779 38.4814 41.5257 38.0337 41.5257 37.4814C41.5257 36.9291 41.0779 36.4814 40.5257 36.4814H30.7722C30.3737 33.291 27.6519 30.8223 24.3535 30.8223C21.055 30.8223 18.3332 33.291 17.9348 36.4814H14.6977C11.6511 36.4814 9.18128 34.0116 9.18128 30.965C9.18128 27.9183 11.6511 25.4485 14.6977 25.4485L34.0092 25.4485C38.1604 25.4485 41.5257 22.0833 41.5257 17.9321C41.5257 13.7809 38.1604 10.4157 34.0092 10.4157Z" fill="url(#paint1_linear_163_4678)"/>
  <path fill-rule="evenodd" clip-rule="evenodd" d="M61.7363 0.290039L61.6007 24.3483L61.612 24.3484L61.4772 48.2436L67.296 48.2764L67.3023 47.1574C67.9522 47.6646 68.6494 48.0555 69.3939 48.3302C70.1477 48.6048 70.9255 48.7444 71.7275 48.749C72.9957 48.7561 74.1631 48.441 75.2298 47.8035C76.2964 47.1661 77.15 46.2757 77.7906 45.1323C78.4405 43.989 78.7696 42.6713 78.7781 41.1793C78.7862 39.734 78.4858 38.4361 77.8768 37.2856C77.2678 36.1352 76.4244 35.2259 75.3464 34.5577C74.2778 33.8803 73.0488 33.5377 71.6594 33.5298C70.8388 33.5252 70.0595 33.642 69.3215 33.8803C68.5835 34.1093 67.9335 34.4413 67.3715 34.8765L67.4316 24.2181L67.4204 24.218L67.5551 0.322843L61.7363 0.290039ZM71.9125 23.8922C73.233 24.5431 74.7139 24.8731 76.3551 24.8824C77.9962 24.8916 79.4761 24.5783 80.7945 23.9423C81.6861 23.509 82.4521 22.9657 83.0927 22.3124C83.7276 22.9722 84.4849 23.5235 85.3646 23.9664C86.6851 24.6173 88.1659 24.9473 89.8071 24.9566C91.4483 24.9658 92.9281 24.6525 94.2465 24.0165C95.5744 23.3712 96.6238 22.4819 97.3949 21.3486C98.1753 20.206 98.5697 18.8887 98.5781 17.3967C98.5865 15.9047 98.207 14.5877 97.4394 13.4457C96.6812 12.2944 95.6419 11.3933 94.3214 10.7424C93.0102 10.0823 91.5341 9.74758 89.8929 9.73833C88.2517 9.72907 86.7672 10.0471 85.4394 10.6924C84.5541 11.1194 83.7901 11.6607 83.1474 12.3161C82.5146 11.6542 81.7553 11.1049 80.8693 10.6682C79.5582 10.0081 78.082 9.67338 76.4409 9.66412C74.7997 9.65487 73.3152 9.97288 71.9873 10.6182C70.6689 11.2542 69.6195 12.1435 68.839 13.2861C68.068 14.4194 67.6782 15.7321 67.6698 17.2241C67.6614 18.716 68.0363 20.0377 68.7945 21.1889C69.562 22.331 70.6014 23.232 71.9125 23.8922ZM77.6995 19.6306C77.2973 19.8521 76.8584 19.9615 76.3828 19.9588C75.9072 19.9562 75.4696 19.8418 75.0699 19.6157C74.6702 19.3803 74.3503 19.0615 74.1101 18.6591C73.8793 18.2569 73.7653 17.79 73.7683 17.2584C73.7713 16.7269 73.8905 16.2613 74.1259 15.8617C74.3707 15.4527 74.6942 15.1375 75.0964 14.916C75.4986 14.6944 75.9375 14.585 76.4131 14.5877C76.8887 14.5904 77.3263 14.7047 77.726 14.9308C78.1257 15.1569 78.441 15.4757 78.6718 15.8873C78.912 16.2896 79.0306 16.7566 79.0276 17.2881C79.0246 17.8196 78.9007 18.2852 78.656 18.6848C78.4206 19.0844 78.1018 19.3997 77.6995 19.6306ZM89.8349 20.033C90.3104 20.0357 90.7493 19.9263 91.1516 19.7048C91.5539 19.4739 91.8727 19.1586 92.1081 18.759C92.3528 18.3594 92.4766 17.8938 92.4796 17.3623C92.4826 16.8308 92.364 16.3638 92.1238 15.9615C91.893 15.5499 91.5778 15.2311 91.1781 15.005C90.7784 14.7789 90.3407 14.6646 89.8651 14.6619C89.3896 14.6592 88.9507 14.7686 88.5484 14.9902C88.1462 15.2117 87.8227 15.5269 87.5779 15.9359C87.3426 16.3355 87.2234 16.8011 87.2204 17.3326C87.2174 17.8642 87.3313 18.3311 87.5622 18.7333C87.8024 19.1357 88.1223 19.4545 88.5219 19.6899C88.9217 19.916 89.3593 20.0304 89.8349 20.033ZM98.9084 10.2351L98.7867 31.8316L104.605 31.8644L104.653 23.472C105.312 23.9886 106.014 24.3796 106.758 24.6449C107.512 24.9196 108.285 25.0591 109.078 25.0636C110.402 25.0711 111.593 24.7421 112.65 24.0766C113.717 23.4112 114.562 22.5068 115.183 21.3633C115.805 20.2198 116.12 18.93 116.128 17.494C116.137 16.0393 115.832 14.7367 115.213 13.5862C114.604 12.4358 113.761 11.5265 112.683 10.8583C111.614 10.1902 110.395 9.85227 109.024 9.84454C108.213 9.83997 107.438 9.95683 106.7 10.1951C105.962 10.4241 105.303 10.7561 104.722 11.1911L104.727 10.2679L98.9084 10.2351ZM108.674 19.8019C108.272 20.0234 107.809 20.1327 107.287 20.1298C106.765 20.1268 106.295 20.0123 105.876 19.7861C105.467 19.5507 105.148 19.2318 104.917 18.8295C104.686 18.4179 104.572 17.9557 104.575 17.4428C104.578 16.93 104.697 16.4737 104.932 16.074C105.177 15.6651 105.505 15.3452 105.917 15.1144C106.328 14.8743 106.791 14.7557 107.304 14.7586C107.816 14.7615 108.273 14.8853 108.672 15.13C109.072 15.3653 109.387 15.6888 109.618 16.1005C109.858 16.5028 109.977 16.9651 109.974 17.4873C109.971 18.0001 109.852 18.4564 109.616 18.856C109.39 19.2558 109.076 19.571 108.674 19.8019ZM69.9369 43.8151C70.4684 43.8181 70.9353 43.7089 71.3375 43.4873C71.7398 43.2565 72.054 42.9412 72.28 42.5415C72.5061 42.1418 72.6205 41.6901 72.6234 41.1866C72.6263 40.6644 72.5077 40.1975 72.2676 39.7858C72.0368 39.3742 71.7215 39.0507 71.3219 38.8153C70.9223 38.5706 70.466 38.4468 69.9532 38.4439C69.4403 38.441 68.978 38.5596 68.5664 38.7998C68.1548 39.0306 67.8266 39.3505 67.5818 39.7594C67.3464 40.159 67.2273 40.62 67.2243 41.1422C67.2215 41.6457 67.3355 42.0986 67.5664 42.5009C67.7972 42.9032 68.1171 43.2221 68.5261 43.4575C68.9351 43.6929 69.4054 43.8122 69.9369 43.8151ZM88.8588 48.8455C87.2176 48.8363 85.7367 48.5062 84.4162 47.8553C83.1051 47.1952 82.0657 46.2941 81.2982 45.1521C80.54 44.0008 80.1651 42.6792 80.1735 41.1872C80.1819 39.6952 80.5717 38.3825 81.3427 37.2492C82.1232 36.1066 83.1726 35.2173 84.491 34.5813C85.8189 33.936 87.3034 33.618 88.9445 33.6273C90.5857 33.6365 92.0619 33.9712 93.373 34.6314C94.6935 35.2823 95.7329 36.1833 96.4911 37.3346C97.2586 38.4766 97.6382 39.7936 97.6298 41.2856C97.6214 42.7776 97.2269 44.0949 96.4465 45.2375C95.6755 46.3708 94.626 47.2601 93.2982 47.9054C91.9798 48.5414 90.4999 48.8548 88.8588 48.8455ZM88.8865 43.922C89.3621 43.9247 89.801 43.8152 90.2032 43.5937C90.6055 43.3628 90.9243 43.0476 91.1597 42.6479C91.4044 42.2483 91.5283 41.7827 91.5313 41.2512C91.5343 40.7197 91.4157 40.2528 91.1755 39.8504C90.9447 39.4388 90.6294 39.12 90.2297 38.8939C89.83 38.6679 89.3924 38.5535 88.9168 38.5508C88.4412 38.5481 88.0023 38.6576 87.6001 38.8791C87.1979 39.1006 86.8744 39.4159 86.6296 39.8248C86.3942 40.2245 86.275 40.6901 86.272 41.2216C86.269 41.7531 86.383 42.22 86.6138 42.6223C86.854 43.0246 87.1739 43.3435 87.5736 43.5789C87.9733 43.8049 88.4109 43.9193 88.8865 43.922ZM103.175 40.9252L96.9783 48.4437L103.972 48.4831L106.649 45.0292L109.287 48.5131L116.281 48.5525L110.169 40.9646L115.466 34.2244L108.697 34.1862L106.695 36.8886L104.724 34.1638L97.9543 34.1257L103.175 40.9252Z" fill="black"/>
  <defs>
    <linearGradient id="paint0_linear_163_4678" x1="58.9803" y1="35.6319" x2="-8.644" y2="35.6319" gradientUnits="userSpaceOnUse">
      <stop offset="0.152232" stop-color="#483D8B"/>
      <stop offset="0.354727" stop-color="#EE7A7A"/>
      <stop offset="0.682577" stop-color="#F6CF56"/>
      <stop offset="0.920429" stop-color="#75C7C5"/>
    </linearGradient>
    <linearGradient id="paint1_linear_163_4678" x1="53.0353" y1="33.341" x2="-2.97864" y2="33.341" gradientUnits="userSpaceOnUse">
      <stop offset="0.152232" stop-color="#483D8B"/>
      <stop offset="0.354727" stop-color="#EE7A7A"/>
      <stop offset="0.682577" stop-color="#F6CF56"/>
      <stop offset="0.920429" stop-color="#75C7C5"/>
    </linearGradient>
  </defs>
</svg>