<svg xmlns="http://www.w3.org/2000/svg" width="40" height="39" viewBox="0 0 40 39" fill="none">
  <rect x="1.42857" y="0.928571" width="37.1429" height="37.1429" rx="2.78571" fill="white" stroke="#978AD6" stroke-width="1.85714"/>
  <rect x="1.42857" y="0.928571" width="37.1429" height="37.1429" rx="2.78571" fill="#F5F5F5" stroke="url(#paint0_linear_206_7736)" stroke-width="1.85714"/>
  <path fill-rule="evenodd" clip-rule="evenodd" d="M27.7313 8.21094H25.0963C24.6585 5.79371 22.5432 3.96045 19.9997 3.96045C17.4562 3.96045 15.341 5.79371 14.9031 8.21094L7.05064 8.21094C6.53781 8.21094 6.12207 8.62668 6.12207 9.13951C6.12207 9.65235 6.53781 10.0681 7.05064 10.0681L14.9029 10.0681C15.3402 12.4859 17.4558 14.3198 19.9997 14.3198C22.5436 14.3198 24.6592 12.4859 25.0965 10.0681H27.7313C30.1002 10.0681 32.0205 11.9884 32.0205 14.3573C32.0205 16.7261 30.1002 18.6465 27.7313 18.6465H12.2684C8.87389 18.6465 6.12208 21.3983 6.12208 24.7928C6.12208 28.1874 8.87389 30.9392 12.2684 30.9392H14.9327C15.4294 33.2816 17.5093 35.0392 19.9997 35.0392C22.4901 35.0392 24.57 33.2816 25.0667 30.9392H32.9491C33.4619 30.9392 33.8776 30.5234 33.8776 30.0106C33.8776 29.4978 33.4619 29.082 32.9491 29.082H25.1214C24.7463 26.5902 22.5961 24.6798 19.9997 24.6798C17.4033 24.6798 15.2531 26.5902 14.878 29.082H12.2684C9.89956 29.082 7.97922 27.1617 7.97922 24.7928C7.97922 22.424 9.89956 20.5036 12.2684 20.5036L27.7313 20.5036C31.1258 20.5036 33.8776 17.7518 33.8777 14.3573C33.8777 10.9628 31.1258 8.21094 27.7313 8.21094Z" fill="url(#paint1_linear_206_7736)"/>
  <defs>
    <linearGradient id="paint0_linear_206_7736" x1="47.7261" y1="28.5308" x2="-6.42133" y2="28.5308" gradientUnits="userSpaceOnUse">
      <stop offset="0.152232" stop-color="#483D8B"/>
      <stop offset="0.354727" stop-color="#EE7A7A"/>
      <stop offset="0.682577" stop-color="#F6CF56"/>
      <stop offset="0.920429" stop-color="#75C7C5"/>
    </linearGradient>
    <linearGradient id="paint1_linear_206_7736" x1="39.732" y1="26.6964" x2="1.19629" y2="26.6964" gradientUnits="userSpaceOnUse">
      <stop offset="0.152232" stop-color="#483D8B"/>
      <stop offset="0.354727" stop-color="#EE7A7A"/>
      <stop offset="0.682577" stop-color="#F6CF56"/>
      <stop offset="0.920429" stop-color="#75C7C5"/>
    </linearGradient>
  </defs>
</svg>