<svg xmlns="http://www.w3.org/2000/svg" width="24" height="24" viewBox="0 0 24 24" fill="none">
  <path d="M15.75 13.125C15.75 15.1961 14.0711 16.875 12 16.875C9.92889 16.875 8.25 15.1961 8.25 13.125C8.25 11.0539 9.92889 9.375 12 9.375C14.0711 9.375 15.75 11.0539 15.75 13.125Z" fill="black" fill-opacity="0.1"/>
  <path d="M8.625 7.875C8.625 9.53192 7.28192 10.875 5.625 10.875C3.96808 10.875 2.625 9.53192 2.625 7.875C2.625 6.21808 3.96808 4.875 5.625 4.875C7.28192 4.875 8.625 6.21808 8.625 7.875Z" fill="black" fill-opacity="0.1"/>
  <path d="M21.375 7.875C21.375 9.53192 20.0319 10.875 18.375 10.875C16.7181 10.875 15.375 9.53192 15.375 7.875C15.375 6.21808 16.7181 4.875 18.375 4.875C20.0319 4.875 21.375 6.21808 21.375 7.875Z" fill="black" fill-opacity="0.1"/>
  <path fill-rule="evenodd" clip-rule="evenodd" d="M12 8.625C12 8.625 13.864 8.625 15.182 9.94302C15.182 9.94302 16.5 11.261 16.5 13.125C16.5 13.125 16.5 14.989 15.182 16.307C15.182 16.307 13.864 17.625 12 17.625C12 17.625 10.136 17.625 8.81802 16.307C8.81802 16.307 7.5 14.989 7.5 13.125C7.5 13.125 7.5 11.261 8.81802 9.94302C8.81802 9.94302 10.136 8.625 12 8.625ZM12 10.125C12 10.125 10.7574 10.125 9.87868 11.0037C9.87868 11.0037 9 11.8824 9 13.125C9 13.125 9 14.3676 9.87868 15.2463C9.87868 15.2463 10.7574 16.125 12 16.125C12 16.125 13.2426 16.125 14.1213 15.2463C14.1213 15.2463 15 14.3676 15 13.125C15 13.125 15 11.8824 14.1213 11.0037C14.1213 11.0037 13.2426 10.125 12 10.125Z" fill="#1C1C1C"/>
  <path d="M22.274 13.5737L22.2743 13.574C22.3934 13.7333 22.5709 13.8388 22.7677 13.8673C22.8033 13.8724 22.8391 13.875 22.875 13.875L22.8764 13.875C23.0377 13.8747 23.1947 13.8224 23.324 13.7258C23.5135 13.5842 23.625 13.3615 23.625 13.125L23.625 13.1164C23.6232 12.9575 23.5709 12.8033 23.4758 12.676L23.4751 12.6752C22.5737 11.4694 21.227 10.796 21.227 10.796C19.8799 10.1225 18.3738 10.125 18.3738 10.125L18.375 10.125C18.7892 10.125 19.125 10.4608 19.125 10.875C19.125 11.2886 18.7903 11.6241 18.3767 11.625L22.274 13.5737Z" fill="#1C1C1C"/>
  <path d="M3.44384 12.1377C4.47305 11.6231 5.62375 11.625 5.62375 11.625L5.6248 11.625H5.625C5.6366 11.625 5.64819 11.6247 5.65977 11.6242C5.84603 11.6156 6.02238 11.5378 6.15444 11.4062C6.29533 11.2658 6.37467 11.0752 6.375 10.8763L6.375 10.8752V10.875C6.375 10.8296 6.37088 10.7844 6.36271 10.7398C6.29751 10.3841 5.98783 10.1256 5.62625 10.125L5.625 10.125C4.11958 10.1228 2.77302 10.796 2.77302 10.796C1.42638 11.4694 0.524888 12.6752 0.524888 12.6752L0.524345 12.6759C0.427356 12.8057 0.375 12.9632 0.375 13.125L0.375041 13.1329C0.37539 13.1661 0.377954 13.1994 0.382716 13.2323C0.411176 13.4292 0.516675 13.6067 0.676004 13.7258C0.805645 13.8227 0.963152 13.875 1.125 13.875C1.13503 13.875 1.14505 13.8748 1.15507 13.8744C1.38084 13.8653 1.59049 13.755 1.72575 13.574C2.41463 12.6523 3.44384 12.1377 3.44384 12.1377Z" fill="#1C1C1C"/>
  <path d="M14.786 18.426C16.064 19.2241 16.7254 20.5778 16.7254 20.5778L16.7258 20.5787L16.726 20.5791C16.8518 20.8367 17.1134 21 17.4 21L17.4205 20.9998C17.5276 20.9968 17.6328 20.971 17.7291 20.924C17.9866 20.7982 18.15 20.5367 18.15 20.25L18.1497 20.2295C18.1468 20.1224 18.1209 20.0172 18.0739 19.921L18.0736 19.9204C17.2236 18.1798 15.5806 17.1537 15.5806 17.1537C13.9374 16.1274 12 16.1274 12 16.1274C10.0626 16.1274 8.41935 17.1537 8.41935 17.1537C6.77639 18.1798 5.92632 19.9204 5.92632 19.9204L5.92606 19.9209C5.87599 20.0234 5.84998 20.136 5.84998 20.25L5.85004 20.2598C5.85108 20.3395 5.86481 20.4185 5.89073 20.4939C5.9554 20.682 6.09215 20.8367 6.27089 20.924C6.37338 20.974 6.48593 21 6.59998 21L6.6172 20.9998C6.89754 20.9934 7.15088 20.8311 7.27392 20.5791C7.93536 19.2245 9.21394 18.426 9.21394 18.426C10.4925 17.6274 12 17.6274 12 17.6274C13.5074 17.6274 14.786 18.426 14.786 18.426Z" fill="#1C1C1C"/>
  <path d="M7.26178 6.33446C7.70946 6.81097 7.83205 7.4532 7.83205 7.4532C7.86935 7.64858 7.98273 7.82115 8.14726 7.93293C8.27159 8.01741 8.41844 8.06257 8.56875 8.06257L8.57361 8.06256C8.61917 8.06226 8.66462 8.05782 8.70938 8.04927C9.06298 7.98177 9.31875 7.67256 9.31875 7.31257L9.31874 7.30835C9.31848 7.26257 9.31403 7.21691 9.30545 7.17195C9.10113 6.10157 8.35499 5.30739 8.35499 5.30739C7.60885 4.5132 6.55329 4.24257 6.55329 4.24257C5.49773 3.97193 4.46151 4.30914 4.46151 4.30914C3.4253 4.64635 2.73117 5.48638 2.73117 5.48638C2.03705 6.3264 1.90121 7.4076 1.90121 7.4076C1.76537 8.48881 2.23012 9.47443 2.23012 9.47443C2.69487 10.4601 3.61547 11.0431 3.61547 11.0431C4.53574 11.626 5.625 11.6251 5.625 11.6251L5.62576 11.6251C5.82467 11.6249 6.01536 11.5457 6.15587 11.4049C6.29619 11.2643 6.375 11.0737 6.375 10.8751L6.375 10.8743C6.37458 10.4604 6.03892 10.1251 5.625 10.1251L5.62424 10.1251C4.97042 10.1257 4.41806 9.7759 4.41806 9.7759C3.86571 9.42606 3.58685 8.83469 3.58685 8.83469C3.308 8.24331 3.38951 7.59459 3.38951 7.59459C3.47101 6.94587 3.88749 6.44186 3.88749 6.44186C4.30396 5.93784 4.92569 5.73552 4.92569 5.73552C5.54742 5.53319 6.18076 5.69557 6.18076 5.69557C6.81409 5.85795 7.26178 6.33446 7.26178 6.33446Z" fill="#1C1C1C"/>
  <path d="M19.582 9.7759C19.0296 10.1257 18.3758 10.1251 18.3758 10.1251L18.375 10.1251C18.3633 10.1251 18.3515 10.1254 18.3398 10.1259L17.6259 10.9103C17.6346 11.0966 17.7124 11.2729 17.8442 11.4049C17.9847 11.5457 18.1754 11.6249 18.3743 11.6251L18.375 11.6251C19.4643 11.626 20.3846 11.0431 20.3846 11.0431C21.3052 10.4601 21.7699 9.47443 21.7699 9.47443C22.2347 8.4888 22.0988 7.4076 22.0988 7.4076C21.963 6.3264 21.2688 5.48638 21.2688 5.48638C20.5747 4.64635 19.5385 4.30914 19.5385 4.30914C18.5023 3.97193 17.4467 4.24257 17.4467 4.24257C16.3912 4.5132 15.645 5.30739 15.645 5.30739C14.8989 6.10157 14.6946 7.17195 14.6946 7.17195C14.6857 7.2183 14.6813 7.26538 14.6813 7.31257C14.6813 7.33511 14.6823 7.35764 14.6843 7.38008C14.7145 7.71346 14.9619 7.98651 15.2906 8.04927C15.337 8.05812 15.3841 8.06257 15.4313 8.06257C15.4538 8.06257 15.4763 8.06156 15.4988 8.05953C15.8322 8.0294 16.1052 7.782 16.168 7.4532C16.2906 6.81097 16.7382 6.33446 16.7382 6.33446C17.1859 5.85795 17.8193 5.69557 17.8193 5.69557C18.4526 5.53319 19.0743 5.73552 19.0743 5.73552C19.6961 5.93784 20.1125 6.44186 20.1125 6.44186C20.529 6.94587 20.6105 7.59459 20.6105 7.59459C20.692 8.24331 20.4132 8.83469 20.4132 8.83469C20.1343 9.42606 19.582 9.7759 19.582 9.7759Z" fill="#1C1C1C"/>
</svg>