<svg xmlns="http://www.w3.org/2000/svg" width="24" height="25" viewBox="0 0 24 25" fill="none">
  <g clip-path="url(#clip0_2854_3962)">
    <path d="M14 15.26V4C14 3.33696 13.7366 2.70107 13.2678 2.23223C12.7989 1.76339 12.163 1.5 11.5 1.5C10.837 1.5 10.2011 1.76339 9.73223 2.23223C9.26339 2.70107 9 3.33696 9 4V15.26C8.19728 15.7963 7.58832 16.5766 7.26307 17.4856C6.93782 18.3946 6.91352 19.3841 7.19376 20.3079C7.47399 21.2317 8.04391 22.041 8.81934 22.6161C9.59476 23.1912 10.5346 23.5017 11.5 23.5017C12.4654 23.5017 13.4052 23.1912 14.1807 22.6161C14.9561 22.041 15.526 21.2317 15.8062 20.3079C16.0865 19.3841 16.0622 18.3946 15.7369 17.4856C15.4117 16.5766 14.8027 15.7963 14 15.26Z" stroke="#B4B3BA" stroke-width="2" stroke-linecap="round" stroke-linejoin="round"/>
  </g>
  <defs>
    <clipPath id="clip0_2854_3962">
      <rect width="24" height="24" fill="white" transform="translate(0 0.5)"/>
    </clipPath>
  </defs>
</svg>